<mxfile host="app.diagrams.net" modified="2024-02-12T09:21:26.310Z" agent="Mozilla/5.0 (Windows NT 10.0; Win64; x64) AppleWebKit/537.36 (KHTML, like Gecko) Chrome/120.0.0.0 Safari/537.36" etag="lCSbLocXvnBTSBS_5QIt" version="23.1.2" type="gitlab">
  <diagram name="Page-1" id="03018318-947c-dd8e-b7a3-06fadd420f32">
    <mxGraphModel dx="3440" dy="678" grid="1" gridSize="10" guides="1" tooltips="1" connect="1" arrows="1" fold="1" page="1" pageScale="1" pageWidth="1100" pageHeight="850" background="none" math="0" shadow="0">
      <root>
        <mxCell id="0" />
        <mxCell id="1" parent="0" />
        <mxCell id="XIFiytp4miUg_fjSW4SD-40" value="" style="whiteSpace=wrap;html=1;rounded=0;shadow=0;labelBackgroundColor=none;strokeColor=#000000;strokeWidth=1;fillColor=none;fontFamily=Verdana;fontSize=12;fontColor=#000000;align=center;comic=1;" parent="1" vertex="1">
          <mxGeometry x="-1080" y="870" width="1060" height="810" as="geometry" />
        </mxCell>
        <mxCell id="XIFiytp4miUg_fjSW4SD-41" value="" style="line;strokeWidth=1;html=1;rounded=0;shadow=0;labelBackgroundColor=none;fillColor=none;fontFamily=Verdana;fontSize=14;fontColor=#000000;align=center;comic=1;" parent="1" vertex="1">
          <mxGeometry x="-1080" y="950" width="1060" height="10" as="geometry" />
        </mxCell>
        <mxCell id="XIFiytp4miUg_fjSW4SD-42" value="History" style="text;html=1;strokeColor=none;fillColor=none;align=center;verticalAlign=middle;whiteSpace=wrap;rounded=0;" parent="1" vertex="1">
          <mxGeometry x="-655" y="900" width="60" height="30" as="geometry" />
        </mxCell>
        <mxCell id="XIFiytp4miUg_fjSW4SD-43" value="Docs" style="text;html=1;strokeColor=none;fillColor=none;align=center;verticalAlign=middle;whiteSpace=wrap;rounded=0;" parent="1" vertex="1">
          <mxGeometry x="-595" y="900" width="60" height="30" as="geometry" />
        </mxCell>
        <mxCell id="XIFiytp4miUg_fjSW4SD-44" value="Image Upload" style="text;html=1;strokeColor=none;fillColor=none;align=center;verticalAlign=middle;whiteSpace=wrap;rounded=0;" parent="1" vertex="1">
          <mxGeometry x="-535" y="900" width="90" height="30" as="geometry" />
        </mxCell>
        <mxCell id="XIFiytp4miUg_fjSW4SD-45" value="" style="rounded=0;whiteSpace=wrap;html=1;fillStyle=hatch;" parent="1" vertex="1">
          <mxGeometry x="-675" y="1100" width="250" height="340" as="geometry" />
        </mxCell>
        <mxCell id="XIFiytp4miUg_fjSW4SD-51" value="Upload" style="rounded=1;whiteSpace=wrap;html=1;" parent="1" vertex="1">
          <mxGeometry x="-585" y="1390" width="70" height="30" as="geometry" />
        </mxCell>
        <mxCell id="XIFiytp4miUg_fjSW4SD-58" value="" style="whiteSpace=wrap;html=1;aspect=fixed;fillStyle=hatch;fillColor=#262626;" parent="1" vertex="1">
          <mxGeometry x="-645" y="1120" width="190" height="190" as="geometry" />
        </mxCell>
        <mxCell id="XIFiytp4miUg_fjSW4SD-59" value="Uploaded Image" style="text;html=1;strokeColor=none;fillColor=none;align=center;verticalAlign=middle;whiteSpace=wrap;rounded=0;" parent="1" vertex="1">
          <mxGeometry x="-580" y="1200" width="60" height="30" as="geometry" />
        </mxCell>
        <mxCell id="-iBGx80nsF8aeqhFiUGu-1" value="Model" style="rounded=1;html=1;whiteSpace=wrap;align=left;fontSize=12;spacingLeft=10;sketch=0;" vertex="1" parent="1">
          <mxGeometry x="-620" y="1340" width="140" height="33" as="geometry" />
        </mxCell>
        <mxCell id="-iBGx80nsF8aeqhFiUGu-2" value="" style="shape=triangle;direction=south;fillColor=#596780;strokeColor=none;html=1;sketch=0;" vertex="1" parent="-iBGx80nsF8aeqhFiUGu-1">
          <mxGeometry x="1" y="0.5" width="12" height="6" relative="1" as="geometry">
            <mxPoint x="-20" y="-3" as="offset" />
          </mxGeometry>
        </mxCell>
      </root>
    </mxGraphModel>
  </diagram>
</mxfile>
